<?xml version="1.0" encoding="UTF-8" standalone="no"?>
<!-- Created with Inkscape (http://www.inkscape.org/) -->

<svg
   xmlns:dc="http://purl.org/dc/elements/1.1/"
   xmlns:cc="http://creativecommons.org/ns#"
   xmlns:rdf="http://www.w3.org/1999/02/22-rdf-syntax-ns#"
   xmlns:svg="http://www.w3.org/2000/svg"
   xmlns="http://www.w3.org/2000/svg"
   xmlns:sodipodi="http://sodipodi.sourceforge.net/DTD/sodipodi-0.dtd"
   xmlns:inkscape="http://www.inkscape.org/namespaces/inkscape"
   width="392"
   height="401"
   id="svg2"
   version="1.1">
  <g
     inkscape:label="Layer 1"
     inkscape:groupmode="layer"
     id="layer1"
     transform="translate(-127.79516,-209.89935)">
    <path
       id="path4002"
       d="m 186.54354,405.334 c 0,0 -30.95964,35.1286 -45.72186,109.75979 0,0 -2.46037,18.45277 4.57902,19.27289 6.97105,0.82013 11.20835,-9.70478 13.66872,-16.12908 1.02515,-2.73374 46.54198,-107.98286 38.27241,-113.72372 0,0 28.43093,-1.57191 31.50639,17.76933 3.1438,19.27289 -26.79069,34.24013 -35.53867,36.01707 -8.81632,1.70859 -8.61129,5.26245 -8.06454,5.74086 0.54675,0.4784 2.46037,3.00712 13.80541,1.29853 11.34503,-1.77694 37.45228,-9.63645 48.79731,-33.76173 0,0 10.93498,-22.82676 -9.43141,-39.57094 -20.43473,-16.81252 -50.36922,-8.33792 -61.57757,-1.02515 -11.27669,7.31276 -7.24442,15.30896 -6.15092,16.40246 1.16184,1.16184 3.7589,2.59705 15.85571,-2.05031"
       style="fill:#221e1f;fill-rule:nonzero;stroke:none" />
    <path
       id="path4006"
       d="m 284.23386,384.48237 c 0,0 0.34172,-4.16896 3.34884,-4.57902 3.07546,-0.41006 5.19411,0.41006 5.8092,9.29473 0.68344,8.95301 -3.69055,21.93829 -10.79829,34.44516 -3.21214,5.74086 -9.29472,19.81964 -9.15804,21.25486 0,0 2.11865,5.87755 -4.7157,5.8092 -6.83436,-0.0683 -11.07166,-10.93497 -9.97817,-19.54626 1.0935,-8.61129 3.62221,-17.90602 25.49216,-46.67867"
       style="fill:#221e1f;fill-rule:nonzero;stroke:none" />
    <path
       id="path4010"
       d="m 342.21656,389.57397 c 0,0 -18.38442,3.82724 -28.43093,2.80209 0,0 -15.24062,-1.98197 -11.07166,-10.72995 0,0 1.77693,-3.62221 6.01423,-3.34883 4.23731,0.27337 9.63645,0.95681 17.0859,-0.27338 7.44945,-1.16184 29.72946,-1.77693 32.66823,-1.43521 2.93878,0.34172 7.24442,3.34883 5.3308,9.49976 -1.98196,6.15092 -17.42761,23.10013 -17.42761,23.10013 l -24.60369,23.30516 c 0,0 16.40246,-3.28049 35.94872,0.0683 19.54627,3.34884 30.00284,4.23731 34.6502,3.69056 4.57902,-0.54675 12.57522,-2.25534 14.69387,-3.14381 2.11865,-0.88846 3.96393,-0.20503 4.71571,1.0935 0.82012,1.29853 0.4784,3.21215 -2.73375,5.19411 -3.21214,1.98197 -14.35215,9.22639 -35.33363,8.47461 -20.98148,-0.75178 -33.21498,-0.6151 -33.21498,-0.6151 0,0 -23.57854,-0.34171 -36.49547,3.41718 0,0 -10.1832,5.39915 -14.55719,0.41006 -4.37399,-4.98908 -1.02515,-11.48172 1.23019,-15.10393 3.28049,-5.19411 20.09301,-20.7081 51.53106,-46.40529"
       style="fill:#221e1f;fill-rule:nonzero;stroke:none" />
    <path
       id="path4014"
       d="m 369.18493,372.39923 c 0,0 -1.91362,-4.85239 1.02515,-7.58614 0.82013,-0.82012 2.6654,-1.70859 4.03228,-1.77693 1.36687,0 2.32368,0.54675 4.37398,0.82012 1.84528,0.34172 35.81204,-4.57902 35.81204,-4.57902 0,0 10.52491,-1.64024 16.26577,4.30565 4.8524,5.12577 -3.96392,14.55718 -3.96392,14.55718 0,0 -29.38774,30.13952 -30.4129,30.48124 0,0 8.26958,0.88847 10.59326,1.16184 2.32368,0.27337 15.65068,2.52871 20.2297,1.84528 4.57902,-0.68344 5.60417,-0.82013 6.15092,-0.95681 0.61509,-0.20503 3.48552,-1.02516 4.2373,1.36687 0.82013,2.46037 -2.11865,6.08258 -10.31988,9.70479 -8.26957,3.62221 -20.36639,3.96392 -25.49215,3.75889 -5.05743,-0.34171 -19.34124,-0.95681 -24.53535,-0.54674 -5.26246,0.41006 -10.79829,1.84527 -11.41338,1.84527 -0.75178,0.0684 -6.01423,-0.27337 -3.00712,-8.4746 3.00712,-8.20123 11.48173,-14.28381 11.48173,-14.28381 l 33.89841,-27.67915 c 0,0 -28.77265,3.62221 -33.48835,1.64024 -2.187,-0.88846 -4.8524,-3.28049 -5.46749,-5.60417"
       style="fill:#221e1f;fill-rule:nonzero;stroke:none" />
    <path
       id="path4018"
       d="m 211.78966,518.2581 c 7.10773,-1.29853 19.1362,-2.80209 19.1362,-2.80209 0,0 24.46701,-55.8367 34.6502,-56.17842 10.18319,-0.34172 -9.97816,50.98431 -9.97816,50.98431 l 29.93449,-6.35595 c 0,0 6.97104,-24.39866 13.60037,-35.47032 6.56098,-11.07166 8.74798,-11.48172 9.84148,-11.48172 1.09349,0 5.46748,0.20503 4.64736,5.3308 -0.82012,5.12576 -6.08258,35.607 -6.08258,35.607 l 8.26957,-3.07546 c 0,0 1.91362,-0.95681 3.00712,0.82012 1.0935,1.84528 -1.91362,4.16896 -1.91362,4.16896 l -11.68675,7.58614 c 0,0 -8.06454,35.1286 -11.20835,39.84431 -3.1438,4.71571 -6.97105,7.44945 -10.72994,7.17608 -3.69056,-0.27338 -7.38111,-3.96393 -7.03939,-12.50688 0.27337,-8.54295 3.7589,-20.70811 3.96393,-21.66492 0,0 -27.20075,10.86663 -31.36971,11.2767 0,0 -9.08969,36.56381 -11.82344,41.27952 -2.6654,4.71571 -8.40626,7.79117 -12.98528,7.24442 -6.21926,-0.75178 -7.10773,-9.36307 -7.17607,-14.48884 -0.0684,-5.12577 3.89558,-21.86995 7.03938,-31.50639 0,0 -14.01043,-1.50356 -16.40246,-4.8524 0,0 -2.0503,-2.39202 -1.50355,-6.21926 0.61509,-3.89559 5.8092,-4.71571 5.8092,-4.71571"
       style="fill:#221e1f;fill-rule:nonzero;stroke:none" />
    <path
       id="path4022"
       d="m 387.93158,538.13241 c 0,0 40.86946,-12.57522 65.5415,-15.37731 24.67203,-2.87043 35.94872,-3.62221 35.94872,-3.62221 0,0 2.46037,-0.54674 3.00712,2.187 0.4784,2.52871 -3.34884,3.07546 -3.34884,3.07546 -75.45131,22.62173 -128.69096,45.38014 -134.97857,48.04554 -5.9459,2.39202 -82.6274,36.08541 -82.6274,36.08541 0,0 -9.43141,3.41718 -17.08589,2.05031 -7.72283,-1.36687 -9.22638,-4.92074 -9.84148,-8.40626 0,0 -2.25534,-7.85951 8.88467,-11.61841 10.25154,-3.48552 37.72566,-15.78737 37.72566,-15.78737 l 72.23916,-28.63596 24.53535,-7.9962 z"
       style="fill:#fcc607;fill-rule:nonzero;stroke:none" />
    <path
       id="path4026"
       d="m 484.35754,382.32955 c -0.61509,1.64025 -0.82012,4.10061 -0.82012,4.10061 0,0 -9.63645,5.53584 -14.01044,7.24442 -4.51067,1.77694 -10.0465,1.43522 -10.0465,1.43522 5.53583,-18.79449 29.11436,-22.48504 29.11436,-22.48504 0,0 -3.62221,8.13289 -4.2373,9.70479 m 35.19695,11.82344 c -0.34172,-1.36687 -7.79117,-2.25534 -10.52492,-2.52871 -2.73374,-0.20503 -5.12577,-1.57191 -6.28761,-4.71571 -1.09349,-3.00712 2.87043,-12.50688 4.64737,-19.20455 1.84527,-6.69767 -1.84528,-9.08969 -3.96393,-9.29472 -2.05031,-0.20503 -4.64736,1.70859 -4.64736,1.70859 -27.40578,-5.74087 -58.43377,23.23681 -60.2107,36.08541 -1.29853,9.36307 1.36687,15.9924 9.15804,17.63264 7.72282,1.64025 14.76221,-1.16184 20.84479,-3.55386 6.01424,-2.25534 18.04271,-11.55007 18.04271,-11.55007 1.16184,2.93877 7.65448,5.87755 13.60037,6.08258 5.94589,0.27337 16.26577,-4.51068 18.04271,-5.74086 1.77693,-1.16184 1.70859,-3.55387 1.29853,-4.92074"
       style="fill:#221e1f;fill-rule:nonzero;stroke:none" />
    <path
       id="path4030"
       d="m 310.11558,331.96716 c 0,0 3.1438,-1.5719 4.44233,-0.20503 1.29853,1.36687 0.54675,3.41718 -0.4784,5.26246 -1.02516,1.84527 -15.44565,24.12528 -20.29805,28.43093 -3.07546,2.6654 -7.44945,3.1438 -10.86663,1.09349 -3.48552,-1.98196 -3.00711,-8.67963 -1.77693,-11.48172 1.23019,-2.80209 5.3308,-10.6616 13.8054,-15.92405 8.40627,-5.19412 15.17228,-7.17608 15.17228,-7.17608"
       style="fill:#009867;fill-rule:nonzero;stroke:none" />
    <path
       id="path4034"
       d="m 497.78022,302.51791 -6.08258,-4.2373 c -17.22258,-13.46369 -87.06972,-41.14284 -87.06972,-41.14284 0,0 -4.92074,-11.07166 -7.72283,-16.4708 -7.85951,-15.17228 -19.68295,-27.13241 -20.2297,-27.54247 -0.61509,-0.34171 -1.16184,-0.34171 -1.16184,-0.34171 l -0.54675,0.13668 -20.50307,5.46749 -47.02039,13.60037 c 0,0 -32.25817,10.11485 -33.76173,10.6616 -1.50356,0.61509 -2.59705,1.64025 -2.59705,1.64025 0,0 -11.00332,18.93117 -11.89179,21.11816 -0.95681,2.187 -13.60037,26.654 -13.60037,26.654 l -31.43805,14.83056 c -2.87043,1.5719 -2.87043,1.43521 -24.60369,14.55718 l -26.31228,18.38443 c 0,0 -24.94541,18.86283 -26.99571,20.77645 -2.05031,1.84527 -4.37399,5.87754 -2.187,9.36307 2.11865,3.48552 7.5178,2.87043 7.5178,2.87043 l 25.21878,-6.62933 50.64259,-12.84859 60.27904,-12.57522 8.26958,-1.43522 c 1.77693,-1.64024 3.82724,-3.28049 6.15092,-4.71571 8.06454,-4.98908 14.69387,-7.17607 16.19743,-7.65448 3.1438,-1.43521 7.24442,-1.77693 10.0465,1.0935 1.16185,1.16184 2.187,3.00712 2.11866,5.53583 l 3.41717,-0.61509 0.13669,0 64.448,-8.33792 c 0,0 41.14284,-4.16896 54.94824,-4.57902 33.35167,-1.02515 49.41241,-6.01423 49.41241,-6.01423 1.36687,-0.6151 5.87755,-2.187 6.76602,-5.87755 0.88846,-3.69056 -1.84528,-5.67252 -1.84528,-5.67252"
       style="fill:#ee1c23;fill-rule:nonzero;stroke:none" />
    <path
       id="path4038"
       d="m 409.5965,479.37744 c 0,0 -17.5643,0.0683 -17.97436,-6.49264 -0.41006,-6.56098 7.03939,-7.9962 10.38822,-6.28761 0,0 1.91362,0.41006 3.7589,0.13669 1.84528,-0.27338 11.00332,-1.91362 11.00332,-1.91362 0,0 13.8054,-22.34835 16.33411,-24.67204 0,0 2.73375,-3.69055 7.10774,-0.75178 4.37398,3.00712 1.23018,9.90982 1.23018,9.90982 l -5.74086,11.61841 41.34787,-7.72282 c 0,0 2.52871,-0.61509 3.00711,1.43521 0.41007,1.70859 -3.96392,3.62221 -3.96392,3.62221 0,0 -42.57806,17.0859 -47.08873,17.83768 l -11.7551,31.77976 -9.63644,28.56762 c 0,0 -1.16184,2.32368 -3.55387,2.187 -2.39203,-0.0684 -3.55387,-4.23731 -3.62221,-5.26246 -0.13669,-1.02515 -1.02515,-16.06074 0.75178,-26.17559 1.77693,-10.11485 8.40626,-27.61081 8.40626,-27.61081"
       style="fill:#221e1f;fill-rule:nonzero;stroke:none" />
    <path
       id="path4042"
       d="m 325.10332,491.48792 c 0,0 -1.36687,-3.1438 -4.2373,-4.57902 -2.87043,-1.50356 -3.34884,-2.93877 -1.98197,-4.44233 1.23019,-1.43522 6.97105,-3.00712 12.71191,-1.84528 5.8092,1.0935 9.77313,8.06454 10.25154,12.84859 0.4784,4.78405 -0.13669,12.64357 -3.34884,20.91314 0,0 25.5605,-15.92405 30.75461,-24.60369 0,0 6.35596,-12.98528 9.29473,-15.30896 0,0 5.94589,-4.51068 8.47461,2.25534 0,0 0.20503,5.3308 -1.70859,16.06074 -1.91362,10.72994 -2.05031,31.50639 -1.70859,32.12148 0.34171,0.68344 2.80208,4.10062 -1.0935,6.35596 0,0 -2.73374,0.88846 -6.62933,-2.25534 -3.89558,-3.14381 -10.6616,-9.02136 -10.31988,-20.8448 0,0 -12.2335,17.63265 -22.55338,22.28001 -10.31988,4.64737 -14.76222,5.12577 -21.25486,0.27338 -6.49264,-4.78405 -1.98196,-19.61461 -1.98196,-19.61461 0,0 5.12577,-15.44565 5.19411,-15.78737 0.0684,-0.41006 0.75178,-2.52871 0.13669,-3.82724"
       style="fill:#221e1f;fill-rule:nonzero;stroke:none" />
    <path
       id="path4046"
       d="m 245.87261,285.87625 c -0.0683,0.27337 -0.61509,0.34172 -1.0935,0.13669 -0.54675,-0.20503 -1.16184,-0.82013 -0.61509,-2.25534 0.47841,-1.50356 12.50688,-26.24394 20.36639,-39.50259 0,0 0.75178,-2.25534 3.82724,-3.21215 3.00712,-0.95681 79.8253,-22.96344 79.8253,-22.96344 l 19.88799,-5.12577 c 0,0 3.75889,-0.6151 5.12577,3.28049 1.29852,3.89558 -2.46037,5.53583 -3.2805,5.8092 -0.75178,0.34172 -46.95204,14.83056 -46.95204,14.83056 l -51.94112,12.2335 c 0,0 -25.01375,36.56382 -25.15044,36.76885"
       style="fill:#221e1f;fill-rule:nonzero;stroke:none" />
    <path
       id="path4050"
       d="m 385.80609,210.91017 c 0,0 -0.27337,-0.68344 0.34172,-0.95681 0.61509,-0.27337 1.0935,0.61509 1.0935,0.61509 0,0 5.26245,9.63645 5.94589,11.7551 0.68343,2.11865 11.96012,33.28332 11.96012,33.28332 0,0 38.27241,11.14001 40.25437,11.68676 2.05031,0.54674 43.53487,15.10393 64.65303,26.0389 0,0 1.98197,0.95681 2.187,1.0935 0.20503,0.13669 2.46037,2.32368 1.36687,5.05742 -1.02515,2.6654 -3.7589,3.14381 -4.64736,3.07546 -0.88847,-0.0683 -5.67252,-1.91362 -5.67252,-1.91362 0,0 -76.06641,-27.33743 -95.8177,-32.05314 0,0 -9.90982,-3.28049 -11.34504,-6.42429 -1.36687,-3.14381 -3.89558,-19.7513 -3.89558,-19.7513 l -6.4243,-31.50639 z"
       style="fill:#221e1f;fill-rule:nonzero;stroke:none" />
    <path
       id="path4054"
       d="m 476.48436,305.98293 c -1.43522,-7.44945 -14.01043,-7.85951 -15.85571,-7.65448 -1.84528,0.13669 -127.3241,16.67583 -135.66201,18.0427 -45.38014,7.44946 -123.29183,26.99572 -123.29183,26.99572 l -47.77216,14.07878 c 0.88846,-1.77694 39.09253,-28.77265 41.34787,-30.48124 2.25533,-1.70859 46.54198,-28.90934 46.54198,-28.90934 0,0 3.55386,-1.36687 2.39202,-3.55386 -0.95681,-1.98197 -2.80209,-1.36687 -2.80209,-1.36687 0,0 -2.73374,1.16184 -10.66159,4.51067 -15.37731,6.56099 -40.04934,21.39154 -40.04934,21.39154 -19.47793,10.79829 -60.34739,43.94493 -60.34739,43.94493 0,0 -4.03227,2.73374 -1.91362,7.65448 2.05031,4.98908 7.58614,4.37399 7.58614,4.37399 l 59.32223,-15.9924 c 4.37399,-1.98196 81.80727,-17.76933 81.80727,-17.76933 l 8.40626,-1.50356 c 1.91362,-1.77693 4.03227,-3.55387 6.62933,-5.12577 7.9962,-4.98908 14.62552,-7.17607 16.12908,-7.65448 3.14381,-1.36687 7.31277,-1.77693 10.04651,1.0935 1.23018,1.23018 2.32368,3.1438 2.18699,5.8092 l 3.41718,-0.54675 0.0684,-0.0683 c 44.08161,-7.58614 141.1295,-14.01043 141.1295,-14.01043 3.55386,-0.54675 13.19031,-3.7589 11.34503,-13.25866"
       style="fill:#221e1f;fill-rule:nonzero;stroke:none" />
    <path
       id="path4058"
       d="m 490.36494,538.56981 0.88847,0 c 1.02515,0 1.98196,-0.41006 1.98196,-1.36687 0,-0.68344 -0.54675,-1.36687 -1.98196,-1.36687 -0.41006,0 -0.68344,0 -0.88847,0.0683 l 0,2.6654 z m 0,4.37399 -1.23018,0 0,-7.85951 c 0.61509,-0.13669 1.23018,-0.20503 2.18699,-0.20503 1.23018,0 1.98196,0.20503 2.46037,0.54675 0.4784,0.41006 0.75178,0.88846 0.75178,1.64024 0,1.0935 -0.68344,1.70859 -1.5719,1.91362 l 0,0.0684 c 0.68343,0.13668 1.16184,0.75177 1.36687,1.98196 0.13668,1.23018 0.34172,1.70859 0.4784,1.91362 l -1.29853,0 c -0.20503,-0.20503 -0.41006,-0.95681 -0.54674,-1.98196 -0.20503,-1.02516 -0.68344,-1.43522 -1.70859,-1.43522 l -0.88847,0 0,3.41718 z m 1.29853,-10.11485 c -3.07546,0 -5.67252,2.6654 -5.67252,6.01423 0,3.34884 2.59706,6.01424 5.74086,6.01424 3.14381,0 5.67252,-2.6654 5.67252,-6.01424 0,-3.34883 -2.52871,-6.01423 -5.67252,-6.01423 l -0.0683,0 z m 0.0683,-1.0935 c 3.89559,0 6.97105,3.14381 6.97105,7.10773 0,4.03228 -3.07546,7.10774 -7.03939,7.10774 -3.82724,0 -6.97105,-3.07546 -6.97105,-7.10774 0,-3.96392 3.14381,-7.10773 6.97105,-7.10773 l 0.0683,0 z"
       style="fill:#221e1f;fill-rule:nonzero;stroke:none" />
  </g>
</svg>
